<?xml version="1.0" encoding="UTF-8" standalone="no"?>
<!-- Created with Inkscape (http://www.inkscape.org/) -->
<svg
   xmlns:dc="http://purl.org/dc/elements/1.1/"
   xmlns:cc="http://creativecommons.org/ns#"
   xmlns:rdf="http://www.w3.org/1999/02/22-rdf-syntax-ns#"
   xmlns:svg="http://www.w3.org/2000/svg"
   xmlns="http://www.w3.org/2000/svg"
   xmlns:sodipodi="http://sodipodi.sourceforge.net/DTD/sodipodi-0.dtd"
   xmlns:inkscape="http://www.inkscape.org/namespaces/inkscape"
   width="128"
   height="128"
   id="svg2"
   sodipodi:version="0.32"
   inkscape:version="0.46"
   version="1.0"
   sodipodi:docname="nyx-svg.svg"
   inkscape:output_extension="org.inkscape.output.svg.inkscape">
  <defs
     id="defs4">
    <inkscape:perspective
       sodipodi:type="inkscape:persp3d"
       inkscape:vp_x="0 : 526.18109 : 1"
       inkscape:vp_y="0 : 1000 : 0"
       inkscape:vp_z="744.09448 : 526.18109 : 1"
       inkscape:persp3d-origin="372.04724 : 350.78739 : 1"
       id="perspective10" />
  </defs>
  <sodipodi:namedview
     id="base"
     pagecolor="#ffffff"
     bordercolor="#666666"
     borderopacity="1.0"
     gridtolerance="10000"
     guidetolerance="10"
     objecttolerance="10"
     inkscape:pageopacity="0.0"
     inkscape:pageshadow="2"
     inkscape:zoom="5.6"
     inkscape:cx="5.5367641"
     inkscape:cy="72.966482"
     inkscape:document-units="px"
     inkscape:current-layer="layer1"
     showgrid="false"
     inkscape:window-width="1918"
     inkscape:window-height="1059"
     inkscape:window-x="0"
     inkscape:window-y="19" />
  <metadata
     id="metadata7">
    <rdf:RDF>
      <cc:Work
         rdf:about="">
        <dc:format>image/svg+xml</dc:format>
        <dc:type
           rdf:resource="http://purl.org/dc/dcmitype/StillImage" />
      </cc:Work>
    </rdf:RDF>
  </metadata>
  <g
     inkscape:label="Layer 1"
     inkscape:groupmode="layer"
     id="layer1">
    <path
       style="opacity:1;fill:#41ff5c;fill-opacity:1;fill-rule:nonzero;stroke:none;stroke-width:1.5;stroke-linecap:butt;stroke-linejoin:bevel;marker:none;marker-start:none;marker-mid:none;marker-end:none;stroke-miterlimit:4;stroke-dasharray:none;stroke-dashoffset:0;stroke-opacity:1;visibility:visible;display:inline;overflow:visible;enable-background:accumulate"
       d="M -0.16259665,59.244448 L -0.16259665,0.048019252 L 64.123118,0.048019252 L 128.40883,0.048019252 L 128.40883,55.86213 C 128.40883,86.559891 128.34856,111.63914 128.2749,111.59381 C 128.20124,111.54847 122.95794,108.51946 116.62312,104.86268 L 105.10526,98.213989 L 94.837404,98.421357 C 89.190082,98.535407 82.691011,98.679823 80.395011,98.742278 L 76.220475,98.855828 L 76.2966,85.708082 C 76.338457,78.476812 76.425243,72.507802 76.489439,72.443612 C 76.651207,72.281853 91.661993,70.027377 91.781511,70.146889 C 91.834654,70.200043 92.101029,72.910503 92.373439,76.170143 C 92.98335,83.468005 92.66635,82.960852 96.355261,82.540548 C 97.636171,82.39461 98.045261,82.274966 98.370618,81.951177 L 98.778814,81.544918 L 98.148475,76.234314 L 97.518154,70.92371 L 99.615279,68.899032 L 101.7124,66.874344 L 102.45474,71.982921 C 103.14806,76.754105 103.22649,77.116791 103.64249,77.474623 C 104.0663,77.83915 104.15023,77.847068 105.37117,77.637641 C 107.4151,77.287039 107.31117,77.558152 107.65035,71.691982 L 107.9406,66.672143 L 111.3629,68.449368 C 113.24517,69.426841 114.97776,70.223959 115.2131,70.220739 C 115.44842,70.217523 116.80615,69.698221 118.23026,69.066739 L 120.81955,67.918591 L 120.81955,67.157187 L 120.81955,66.395796 L 113.89623,63.35583 C 108.98569,61.199664 107.06483,60.277912 107.28908,60.185291 C 107.46298,60.113466 109.24781,59.646835 111.25539,59.148325 C 113.26294,58.649812 115.00733,58.184957 115.13178,58.115307 C 115.25623,58.045655 116.20042,56.750116 117.22996,55.236327 L 119.10185,52.483987 L 118.72389,51.935641 C 118.51599,51.634059 118.33171,51.365628 118.31433,51.339135 C 118.29694,51.312648 115.69181,51.820582 112.52514,52.467891 C 109.35846,53.115202 106.72099,53.598266 106.66408,53.541371 C 106.60719,53.484482 106.65239,50.849402 106.76451,47.685651 C 107.0079,40.818128 107.18087,41.357264 104.5766,40.866759 L 102.88812,40.548737 L 102.3449,40.935535 L 101.80169,41.322335 L 101.79924,47.158398 C 101.7979,50.368223 101.74987,53.169478 101.69249,53.383403 C 101.59839,53.734294 101.49201,53.6644 100.60539,52.669118 C 100.06485,52.062334 99.456743,51.50328 99.254029,51.426775 C 98.955386,51.314069 93.634386,52.226021 93.495189,52.413766 C 93.47685,52.4385 93.369814,52.731177 93.257314,53.06416 C 93.026189,53.748314 92.562207,53.145075 97.665886,58.795828 C 98.951011,60.218732 99.945261,61.432444 99.875314,61.492968 C 99.80535,61.553487 94.331529,62.864771 87.711261,64.406923 C 78.225279,66.616623 75.643046,67.161416 75.526493,66.977641 C 75.445136,66.84938 75.37735,65.970212 75.37585,65.023925 L 75.373118,63.303405 L 78.514671,59.978973 C 80.425029,57.957414 81.737225,56.702953 81.862886,56.778059 C 81.976546,56.845987 83.049957,57.689877 84.248225,58.653366 C 86.973814,60.844916 87.152314,60.874185 88.637636,59.373198 C 90.236582,57.7574 90.206921,57.659275 87.203475,54.628544 C 85.853029,53.265827 84.828475,52.117353 84.926689,52.076382 C 85.024904,52.035412 88.237529,50.648855 92.065868,48.995146 C 97.039689,46.84663 99.11235,45.866935 99.327332,45.562853 C 99.589296,45.192353 99.615421,44.782755 99.529404,42.396364 L 99.4306,39.655421 L 98.875046,39.315651 C 98.569529,39.12878 98.208404,39.017803 98.072564,39.069039 C 97.936725,39.120275 95.219511,40.775989 92.034314,42.748405 C 88.849118,44.720828 86.221243,46.306294 86.1946,46.271676 C 86.09385,46.140826 87.653939,37.875164 87.804564,37.741675 C 87.891386,37.664743 89.730261,37.219098 91.890975,36.751351 C 94.051689,36.283609 95.953689,35.830182 96.117654,35.743743 C 96.42835,35.57993 98.766636,31.895521 98.765082,31.572191 C 98.7646,31.470507 98.583796,31.170371 98.363296,30.905232 L 97.962404,30.423157 L 93.676689,31.290978 C 91.319546,31.768289 89.371046,32.139409 89.346707,32.115696 C 89.322368,32.091984 91.111779,29.509205 93.323189,26.376193 C 95.534618,23.24318 97.302296,20.571259 97.251386,20.438593 C 97.200493,20.30593 97.158832,20.058976 97.158832,19.889816 C 97.158832,19.678255 96.497921,19.237019 95.041493,18.476246 C 93.133154,17.479416 92.871475,17.388598 92.390582,17.556237 C 91.918314,17.720866 91.564296,18.317496 89.309421,22.748769 C 87.022868,27.242287 86.722689,27.745998 86.379975,27.664503 C 86.169957,27.614566 85.493904,27.476726 84.877654,27.358196 C 83.986171,27.186723 83.774279,27.083753 83.840779,26.85428 C 83.886743,26.69566 84.213439,24.96741 84.566761,23.013732 L 85.209154,19.461585 L 84.800064,19.018923 L 84.390975,18.576266 L 81.801689,18.689605 C 79.330225,18.797789 79.19435,18.823326 78.81585,19.25078 C 78.54485,19.556839 78.444743,19.852851 78.499671,20.185816 C 78.699636,21.397966 79.342457,27.923923 79.269118,27.997259 C 79.224011,28.04236 78.33335,27.793369 77.289868,27.443944 L 75.392636,26.808623 L 74.866707,27.197443 C 74.418529,27.5288 74.351296,27.682409 74.411814,28.236785 C 74.450868,28.594571 74.560582,29.648825 74.655618,30.579569 C 74.873939,32.717993 74.993171,32.828976 77.240386,32.985748 C 78.128564,33.047709 79.168904,33.144425 79.552243,33.200671 L 80.249225,33.302937 L 80.133154,36.362978 C 80.069296,38.046 80.015296,40.708734 80.013136,42.280162 L 80.009189,45.137305 L 79.486743,44.305439 C 78.679743,43.0206 78.259386,43.013109 76.325814,44.24911 C 75.458082,44.803791 74.647671,45.386534 74.524904,45.544094 C 74.141814,46.035741 74.272225,46.591621 75.215654,48.488589 L 76.1296,50.326307 L 72.793421,54.919312 C 70.820993,57.634794 69.339921,59.512305 69.170261,59.512305 C 68.436975,59.512305 63.295796,58.541828 63.111261,58.368571 C 62.80285,58.079027 59.666189,50.333948 59.806564,50.208541 C 59.872636,50.149505 61.815082,49.435205 64.123118,48.621205 C 66.55585,47.763226 68.480064,46.982776 68.701475,46.764253 C 69.009707,46.460059 69.193136,45.74971 69.651939,43.083734 C 69.964636,41.266769 70.251404,39.659626 70.289207,39.512305 C 70.326993,39.364984 70.199654,39.053507 70.006171,38.820134 C 69.703261,38.454782 69.387939,38.364828 67.736957,38.172814 C 65.822243,37.950125 65.818903,37.950407 65.362796,38.374448 C 64.926457,38.78008 64.909386,38.869166 64.980886,40.364778 L 65.055743,41.930475 L 62.312671,43.117412 C 60.803939,43.770221 59.519243,44.250687 59.457778,44.185109 C 59.16335,43.871034 54.985421,32.152621 55.124761,32.031719 C 55.212225,31.955818 56.489189,31.626253 57.962403,31.299362 C 59.435618,30.972475 60.761511,30.674303 60.908832,30.63676 C 61.056153,30.599221 62.542761,31.61476 64.212403,32.893518 C 67.868475,35.693659 67.881707,35.697051 69.310707,34.199805 C 71.231064,32.187739 71.253332,32.154866 71.120046,31.529332 C 71.009261,31.009318 70.810636,30.865201 68.944546,29.950784 C 67.815082,29.397319 66.877814,28.931626 66.861743,28.9159 C 66.845671,28.900173 66.658403,27.360519 66.445582,25.494448 C 66.100778,22.471044 66.014761,22.061484 65.655546,21.733264 C 65.306064,21.413928 64.864136,21.33805 62.333278,21.162805 C 60.727743,21.051632 59.348082,21.001493 59.26735,21.051384 C 59.186618,21.101275 58.996011,21.382968 58.843778,21.677369 C 58.571528,22.203855 58.582046,22.23615 59.485546,23.644601 C 59.990761,24.432176 60.377046,25.102564 60.343975,25.13435 C 60.238511,25.235691 54.617921,25.780919 54.534868,25.697862 C 54.491028,25.654025 54.821743,25.36595 55.269778,25.057693 C 55.717814,24.749435 56.132903,24.303939 56.192189,24.0677 C 56.255028,23.81733 56.088064,22.927655 55.791903,21.934705 C 55.337278,20.410444 55.229368,20.212203 54.766118,20.050341 C 54.481368,19.95085 54.185225,19.869448 54.108011,19.869448 C 54.030796,19.869448 53.090368,20.58585 52.018171,21.46145 L 50.068743,23.05345 L 47.115511,19.631094 C 45.491243,17.748796 44.178296,16.190601 44.197886,16.168439 C 44.217457,16.146276 45.594796,15.776741 47.258653,15.34725 C 50.102296,14.613216 50.303171,14.533267 50.606136,14.014966 L 50.928457,13.463575 L 50.159707,12.121548 C 49.736903,11.383434 49.212332,10.697996 48.993975,10.598353 C 48.692296,10.460684 47.671761,10.603087 44.74385,11.191384 L 40.890725,11.965585 L 40.980403,11.497871 C 41.029725,11.240632 41.16685,9.7293461 41.285118,8.1394621 C 41.557368,4.4796335 41.573528,4.5146157 39.410546,4.0850514 C 38.011832,3.8072675 37.848796,3.8057228 37.45085,4.0664675 C 36.906421,4.423196 36.851189,4.7544264 36.699796,8.5717014 C 36.62735,10.398091 36.496225,11.7495 36.377207,11.896303 C 36.257028,12.044553 34.388118,12.483291 31.712403,12.991396 C 27.980136,13.700134 27.196993,13.90165 26.936278,14.220366 C 26.674761,14.540064 26.631528,14.917569 26.668421,16.559419 C 26.711386,18.471728 26.723403,18.523416 27.185653,18.782484 C 27.623207,19.027714 27.883993,18.990443 30.643403,18.288357 C 32.284886,17.870707 33.654475,17.555564 33.686939,17.588039 C 33.719421,17.62051 33.147814,18.109828 32.416689,18.675409 C 30.787439,19.935782 30.730261,20.246303 31.825082,21.888175 C 32.681689,23.172791 32.973207,23.440876 33.513528,23.440876 C 33.748118,23.440876 35.046653,22.537575 36.728011,21.204791 C 38.992368,19.409873 39.592332,19.013521 39.769011,19.195862 C 40.6976,20.154175 44.458689,24.414826 44.414814,24.458709 C 44.384386,24.489137 43.009618,23.96103 41.359778,23.285134 C 39.252439,22.421807 38.234653,22.089773 37.938493,22.168982 C 37.706618,22.230996 37.083796,22.778334 36.554457,23.385293 C 35.684814,24.382437 35.603636,24.54595 35.712564,25.080937 C 35.830386,25.659432 35.948671,25.726534 40.866118,28.004462 C 43.634278,29.286755 45.936618,30.373418 45.982457,30.419266 C 46.028296,30.465114 45.008064,31.143644 43.715261,31.927109 C 40.882493,33.643844 40.768207,33.833644 41.563118,35.502201 C 42.360582,37.176078 42.399243,37.174039 46.356082,35.249887 C 48.203636,34.351455 49.741528,33.642623 49.773618,33.674716 C 49.903725,33.804819 54.655171,45.680428 54.614011,45.772641 C 54.589546,45.827437 53.273671,45.669398 51.689814,45.421453 L 48.810064,44.970646 L 48.695778,43.740919 C 48.528386,41.939859 48.372761,41.84715 45.504153,41.839675 L 43.224493,41.833734 L 42.937386,42.435791 L 42.650278,43.037848 L 43.852261,45.303582 C 44.513314,46.549734 45.008118,47.615401 44.951778,47.671734 C 44.895457,47.728064 44.121707,47.641028 43.23235,47.478319 C 42.083796,47.268187 41.516582,47.235323 41.274511,47.36488 C 41.004225,47.509525 40.157118,48.600937 38.663225,50.729253 C 38.641511,50.760189 37.291189,49.801071 35.662528,48.597896 C 34.03385,47.394718 32.728386,46.383226 32.761475,46.35013 C 32.794582,46.317035 33.40585,46.178641 34.119886,46.042591 C 35.416136,45.795603 35.421082,45.796168 37.380868,46.416743 C 39.063796,46.949646 39.415189,47.008619 39.845546,46.830362 C 40.375511,46.610828 40.396546,46.576623 40.923225,45.076169 C 41.373618,43.793046 41.119939,43.259728 39.840368,42.799603 C 39.3446,42.621326 38.960314,42.431519 38.986403,42.377812 C 39.012493,42.32411 39.41535,41.715578 39.881636,41.025534 C 40.682153,39.840898 40.717475,39.739175 40.514761,39.202141 C 40.332171,38.71841 40.170743,38.605641 39.434957,38.447841 C 38.437618,38.233951 38.019921,38.217178 37.609814,38.374553 C 37.391939,38.45816 36.229136,40.021425 35.480189,41.237621 C 35.470403,41.253514 34.257046,41.437032 32.783832,41.645451 C 31.310618,41.853869 29.895314,42.065816 29.638707,42.116441 C 29.187278,42.205505 29.130618,42.11178 27.892778,39.228334 C 27.189136,37.589243 26.655207,36.20641 26.706243,36.155362 C 26.834028,36.027578 29.656528,35.414651 30.141314,35.409412 C 30.389171,35.406734 31.326832,36.098273 32.677903,37.280162 C 35.233493,39.515764 35.386046,39.55435 36.8746,38.34178 C 38.270439,37.204735 38.238636,36.941457 36.493386,35.185898 C 35.144618,33.829203 35.125582,33.797794 35.645171,33.787984 C 37.435207,33.754187 39.8506,33.473655 40.094528,33.271218 C 40.249903,33.142264 40.751403,32.436084 41.208993,31.701919 L 42.040939,30.367069 L 41.714636,29.761121 C 41.535153,29.427843 41.300511,29.155548 41.193207,29.156019 C 41.085903,29.156485 39.390975,29.316818 37.426689,29.512305 C 35.462403,29.707793 33.633993,29.868121 33.363546,29.868591 C 32.931975,29.869346 32.557618,29.446284 30.303011,26.410087 C 28.890153,24.507439 27.632457,22.887862 27.508136,22.811028 C 27.383814,22.734194 26.523421,22.622314 25.596171,22.562407 L 23.910261,22.453491 L 23.659564,22.938312 C 23.521653,23.204969 23.409921,23.527578 23.411243,23.655223 C 23.412564,23.782866 24.448671,25.253376 25.713689,26.923019 L 28.013725,29.958734 L 26.648778,30.4255 C 25.898064,30.682218 25.254743,30.867421 25.219207,30.83706 C 25.183653,30.806698 25.248403,29.974843 25.363064,28.988487 C 25.634921,26.650141 25.501189,26.427807 23.641653,26.126346 C 21.667564,25.806309 21.511975,25.950141 20.989689,28.578101 C 20.808778,29.488398 20.598761,30.211612 20.522993,30.185244 C 20.447189,30.158884 19.713671,29.52215 18.892886,28.770294 C 18.0721,28.018439 17.205546,27.377896 16.967189,27.346866 C 16.72885,27.315837 15.998421,27.518198 15.344028,27.796559 C 14.17635,28.293241 13.953707,28.543018 13.946993,29.363666 C 13.945636,29.527453 15.471332,31.047066 17.337403,32.740589 C 19.203475,34.434118 20.730261,35.872769 20.730261,35.937601 C 20.730261,36.03728 18.000189,38.634189 12.298636,43.957978 L 11.099136,45.077993 L 8.9265087,45.393675 C 6.2279909,45.785778 6.0972927,45.902178 6.0913748,47.918678 C 6.0878248,49.129105 6.133823,49.315089 6.528473,49.685841 C 6.9620569,50.093171 6.9967712,50.096484 8.5735016,49.881012 L 10.177457,49.661819 L 11.604028,50.747777 C 13.344671,52.072818 13.68285,52.106619 15.365707,51.12378 C 16.395796,50.522175 16.596618,50.324598 16.681618,49.829137 C 16.7736,49.292923 16.690546,49.159339 15.679671,48.217773 L 14.577439,47.191094 L 15.019921,46.765353 C 17.010028,44.850501 22.592171,40.055493 22.697011,40.170803 C 23.017296,40.52311 24.126493,44.042718 23.951332,44.150964 C 23.849207,44.214089 22.559653,44.489435 21.085671,44.762841 C 17.650386,45.400043 17.596386,45.457273 18.146671,47.876648 C 18.584207,49.800343 18.5446,49.792634 23.191975,48.85885 C 25.313707,48.432537 27.185761,48.083734 27.352082,48.083734 C 27.642439,48.083734 34.480261,54.410794 34.480261,54.679459 C 34.480261,54.751469 33.716546,55.222427 32.783118,55.726039 L 31.085957,56.641702 L 29.036564,56.44676 C 26.271707,56.183778 26.182296,56.22676 25.343118,58.222469 L 24.6881,59.780162 L 25.097618,60.315877 C 25.49935,60.841468 25.541243,60.852553 27.3151,60.90248 C 28.309511,60.930471 29.123118,60.989123 29.123118,61.032819 C 29.123118,61.076516 28.804225,61.912721 28.414457,62.891052 C 27.457421,65.293243 27.529278,65.509237 29.544564,66.28836 C 31.570511,67.071603 31.728993,66.988193 32.711278,64.621812 C 33.123564,63.628552 33.589814,62.683853 33.747368,62.522491 C 33.904921,62.361125 35.304582,61.416 36.857707,60.422205 L 39.681582,58.615307 L 47.014403,62.054877 L 54.347207,65.494448 L 54.216671,82.280162 C 54.144868,91.512305 54.059475,99.094143 54.026921,99.128691 C 53.994368,99.163239 47.554028,99.983925 39.715064,100.95244 C 31.8761,101.92095 25.298046,102.78749 25.097189,102.87807 C 24.896314,102.96864 19.161778,106.50733 12.353778,110.74182 C 5.5457962,114.9763 -0.055485931,118.44088 -0.093493074,118.44088 C -0.13149665,118.44088 -0.16259665,91.802484 -0.16259665,59.244448 z"
       id="path3287" />
    <path
       style="opacity:1;fill:#41ff5c;fill-opacity:1;fill-rule:nonzero;stroke:none;stroke-width:1.5;stroke-linecap:butt;stroke-linejoin:bevel;marker:none;marker-start:none;marker-mid:none;marker-end:none;stroke-miterlimit:4;stroke-dasharray:none;stroke-dashoffset:0;stroke-opacity:1;visibility:visible;display:inline;overflow:visible;enable-background:accumulate"
       d="M 49.505868,55.661128 C 45.836921,54.25536 42.809671,53.079816 42.778671,53.04881 C 42.747671,53.017805 43.429939,52.122162 44.29485,51.058489 C 45.299707,49.822685 45.838314,49.013334 45.786832,48.816487 C 45.717707,48.552151 46.230814,48.641339 49.402957,49.445059 C 51.436136,49.960203 53.163332,50.447232 53.241189,50.52735 C 53.403993,50.69488 56.298582,58.114625 56.225189,58.17631 C 56.198511,58.198735 53.174814,57.066905 49.505868,55.661132 L 49.505868,55.661128 z"
       id="path3289" />
    <path
       style="opacity:1;fill:#f8ff41;fill-opacity:1;fill-rule:nonzero;stroke:none;stroke-width:1.50000000000000000;stroke-linecap:butt;stroke-linejoin:bevel;marker:none;marker-start:none;marker-mid:none;marker-end:none;stroke-miterlimit:4;stroke-dasharray:none;stroke-dashoffset:0;stroke-opacity:1;visibility:visible;display:inline;overflow:visible;enable-background:accumulate"
       d="M -0.1213645,124.31322 L -0.073310931,120.36414 L 12.783832,112.33234 L 25.640975,104.30054 L 40.355618,102.48441 C 54.892707,100.6902 55.074064,100.66293 55.3866,100.22422 C 55.682064,99.809496 55.711082,98.62998 55.826225,82.369448 C 55.94535,65.545475 55.938278,64.945377 55.616671,64.562366 C 55.214278,64.083164 40.293975,57.012305 39.685207,57.012305 C 39.294225,57.012305 32.752564,61.058275 32.36185,61.541735 C 32.271778,61.653227 31.900493,62.467662 31.536832,63.351591 C 31.173171,64.235519 30.8516,64.98353 30.822243,65.013837 C 30.792886,65.044143 30.484082,64.949955 30.136028,64.804527 L 29.503189,64.540109 L 30.295296,62.518755 C 30.730957,61.407018 31.084725,60.416385 31.081457,60.317357 C 31.078189,60.218327 30.924689,59.956502 30.740332,59.735519 C 30.431403,59.365189 30.256921,59.333734 28.511743,59.333734 L 26.618314,59.333734 L 26.894296,58.673257 C 27.046064,58.310005 27.197064,57.985977 27.22985,57.9532 C 27.262618,57.920428 28.212207,57.98371 29.340046,58.093837 L 31.390653,58.294066 L 33.898457,56.935477 C 37.552636,54.955835 37.649457,55.374464 32.384243,50.387637 C 28.703636,46.901621 28.150171,46.441753 27.64335,46.448382 C 27.327761,46.452509 25.468921,46.781803 23.512618,47.180146 C 21.556314,47.578493 19.9266,47.87531 19.891046,47.83975 C 19.855475,47.804193 19.757136,47.533632 19.672493,47.238509 L 19.5186,46.701919 L 22.460171,46.098184 C 26.454743,45.278328 26.316225,45.543519 24.915814,41.397059 C 23.866314,38.289569 23.848939,38.25506 23.249796,38.08845 C 22.8216,37.969378 22.556868,37.983257 22.3456,38.135837 C 22.181314,38.254496 19.982796,40.193853 17.460011,42.445505 C 12.071636,47.254771 12.193689,47.043489 13.872136,48.656435 L 14.871153,49.616468 L 14.246368,49.952925 L 13.6216,50.289391 L 12.131278,49.172121 L 10.640975,48.054851 L 9.5695462,48.16951 C 8.9802605,48.232576 8.3173141,48.328143 8.0963319,48.381884 C 7.7376319,48.469119 7.6945462,48.412626 7.6945462,47.855109 C 7.6945462,47.153123 7.5378391,47.214541 10.334028,46.820723 L 11.812796,46.612448 L 17.119743,41.619893 C 22.259457,36.784662 22.426689,36.606069 22.426689,35.952585 C 22.426689,35.306151 22.293707,35.15626 19.257046,32.3801 C 17.513743,30.786348 16.087403,29.417339 16.087403,29.337868 C 16.087403,29.2584 16.219564,29.142659 16.381082,29.080676 C 16.70385,28.956812 16.715171,28.965193 18.992403,31.01565 C 20.541957,32.410887 20.571689,32.427525 21.226903,32.26565 L 21.890975,32.101591 L 22.332082,29.914091 L 22.773189,27.726591 L 23.378225,27.726591 C 23.914886,27.726591 23.972493,27.772003 23.887903,28.128376 C 23.835475,28.349359 23.695243,29.321968 23.576314,30.28973 L 23.3601,32.049296 L 23.865368,32.452216 L 24.370689,32.855125 L 26.986689,31.981101 C 29.524868,31.133084 29.608153,31.089337 29.785689,30.510862 C 29.964386,29.928635 29.918957,29.849476 27.849475,27.136907 C 26.683903,25.60915 25.730261,24.313268 25.730261,24.257166 C 25.730261,24.201062 25.951243,24.155344 26.221332,24.155569 C 26.653993,24.155925 27.02035,24.579821 29.301689,27.719719 C 30.8581,29.861885 32.05485,31.340991 32.301778,31.427678 C 32.53535,31.509678 34.076153,31.440503 35.873207,31.267344 C 37.611546,31.099839 39.2201,30.957866 39.447778,30.951837 L 39.861725,30.940876 L 39.497868,31.45186 C 39.147243,31.94426 39.064046,31.967184 37.208921,32.082453 C 33.334421,32.323201 33.317314,32.327134 33.060957,33.036039 L 32.834243,33.663001 L 34.463636,35.299157 C 35.742475,36.583369 36.046278,36.982007 35.875903,37.152382 C 35.756511,37.271769 35.546493,37.369448 35.409207,37.369448 C 35.271903,37.369448 34.293386,36.607821 33.234725,35.676944 C 32.176064,34.746069 31.117421,33.911275 30.882225,33.821848 C 30.577028,33.705818 29.707153,33.814805 27.844564,34.202448 C 25.312189,34.729494 25.226796,34.762084 24.972796,35.298616 C 24.717868,35.837121 24.753403,35.950762 26.330314,39.640409 C 27.708993,42.866293 28.021296,43.458923 28.432118,43.629094 C 28.812993,43.786859 29.585528,43.731282 32.099243,43.365276 C 36.649778,42.702701 36.435618,42.78955 37.422136,41.206728 C 37.880564,40.471225 38.372903,39.869448 38.516243,39.869448 C 38.689028,39.869448 38.484957,40.30583 37.91085,41.164091 C 37.128528,42.333653 37.0611,42.513493 37.213064,43.025525 C 37.355046,43.503882 37.545743,43.653819 38.43535,43.986509 C 39.357868,44.331516 39.474939,44.427909 39.373368,44.759005 C 39.309546,44.967068 39.231261,45.166648 39.199421,45.202512 C 39.167582,45.238373 38.335564,45.021596 37.350511,44.720778 L 35.559511,44.173843 L 33.010957,44.626855 C 31.609243,44.876021 30.445993,45.095818 30.425939,45.115296 C 30.405886,45.134773 30.340886,45.469125 30.281493,45.858294 L 30.173528,46.565876 L 34.272725,49.556175 C 37.895903,52.199235 38.432511,52.534357 38.893778,52.442103 C 39.296975,52.361464 39.693689,51.9556 40.638493,50.65716 C 41.918636,48.897857 42.001814,48.846973 43.204386,49.087489 L 43.758886,49.198389 L 42.246207,51.037573 C 40.885653,52.691766 40.744653,52.932441 40.844243,53.430389 C 40.905136,53.734885 41.045028,54.040793 41.155118,54.110178 C 41.265189,54.17956 44.971332,55.616805 49.390975,57.304048 L 57.426689,60.371757 L 57.944921,59.8668 L 58.463136,59.361843 L 56.530046,54.425689 C 55.277457,51.227235 54.46185,49.383539 54.213189,49.188425 C 54.002136,49.022807 52.213939,48.489803 50.239421,48.003969 L 46.649403,47.120632 L 46.302814,46.486116 C 46.112189,46.137125 45.657403,45.30918 45.292153,44.646234 L 44.6281,43.440876 L 45.893457,43.440876 L 47.158832,43.440876 L 47.158832,44.570462 C 47.158832,46.2954 47.193457,46.313703 51.888903,47.071339 C 55.471493,47.649412 55.842546,47.680326 56.125403,47.424337 C 56.295921,47.27003 56.485511,46.986005 56.546707,46.793176 C 56.619653,46.563343 55.689189,44.03415 53.845493,39.450655 C 52.298636,35.605093 50.9616,32.366171 50.874314,32.253039 C 50.4186,31.662364 49.849636,31.816269 46.509118,33.433916 C 44.6821,34.318651 43.116582,34.998835 43.030189,34.945444 C 42.519225,34.629651 43.050546,34.146112 45.566403,32.637305 L 48.246243,31.030162 L 48.1936,30.335189 L 48.140975,29.640218 L 43.765975,27.605871 C 41.359725,26.486984 38.953528,25.370696 38.418868,25.125234 L 37.446743,24.678937 L 37.896636,24.229043 L 38.346528,23.779148 L 42.717046,25.5743 C 45.120832,26.56163 47.163868,27.368453 47.257136,27.367237 C 47.350386,27.366023 47.600814,27.096078 47.813653,26.767364 L 48.2006,26.169703 L 44.265207,21.814219 C 40.754368,17.928637 40.062225,17.274696 39.390975,17.209 C 39.292761,17.199385 37.966868,18.192607 36.444546,19.416153 L 33.676689,21.640785 L 33.275796,21.156903 C 33.055296,20.890766 32.874493,20.591373 32.874011,20.491584 C 32.873511,20.391794 33.998118,19.437359 35.373118,18.370618 C 36.748118,17.303878 37.873118,16.386764 37.873118,16.332589 C 37.873118,15.958232 37.400939,15.048019 37.206743,15.048019 C 37.076136,15.048019 35.045653,15.530162 32.694546,16.119448 C 30.343439,16.708734 28.377171,17.190876 28.325046,17.190876 C 28.272903,17.190876 28.230261,16.757332 28.230261,16.227443 L 28.230261,15.264007 L 32.736296,14.397242 C 36.10885,13.748516 37.346921,13.440526 37.658064,13.172889 C 38.054028,12.832305 38.083261,12.642459 38.272636,9.1812336 L 38.471475,5.5471675 L 39.087278,5.6471014 C 39.425975,5.7020639 39.73585,5.7797996 39.775903,5.8198478 C 39.815957,5.8598978 39.715011,7.4690782 39.551582,9.395805 L 39.254439,12.898944 L 39.67985,13.253259 C 39.913832,13.448126 40.231475,13.610239 40.385743,13.613507 C 40.539993,13.616773 42.261993,13.298019 44.212403,12.905162 C 46.162814,12.512305 47.887564,12.190876 48.045207,12.190876 C 48.27735,12.190876 49.099653,13.224312 48.909993,13.277721 C 48.879886,13.286198 47.415671,13.667894 45.656171,14.125935 L 42.4571,14.958734 L 42.241082,15.590634 L 42.025082,16.222532 L 45.690618,20.412062 C 48.856118,24.030096 49.432332,24.608832 49.914743,24.654678 C 50.383796,24.699253 50.7571,24.478101 52.243207,23.275251 C 53.216636,22.487366 54.043314,21.87298 54.080278,21.909946 C 54.117243,21.94691 54.256868,22.340594 54.390564,22.784798 L 54.633618,23.592439 L 52.771225,24.895126 C 51.746903,25.611601 50.908832,26.288723 50.908832,26.399839 C 50.908832,26.510955 50.998296,26.858489 51.107636,27.172137 C 51.297153,27.715787 51.340921,27.737751 52.045136,27.642662 C 52.451421,27.587801 54.829671,27.339748 57.330136,27.091432 C 59.830582,26.843114 61.889564,26.623282 61.905636,26.602912 C 61.921671,26.582543 62.061636,26.316364 62.2166,26.011403 C 62.494207,25.465125 62.486457,25.437791 61.692653,24.162228 C 61.249511,23.450141 60.928475,22.825993 60.979243,22.775228 C 61.030011,22.724464 61.836243,22.740262 62.770868,22.810334 L 64.470189,22.937739 L 64.566957,23.501809 C 64.620171,23.812044 64.817653,25.343039 65.005796,26.904014 C 65.229975,28.764116 65.437582,29.831876 65.608225,30.002521 C 65.751421,30.145719 66.635761,30.636419 67.573386,31.092955 L 69.278189,31.923019 L 68.523243,32.769064 L 67.768314,33.615121 L 64.74035,31.296428 C 63.074993,30.021148 61.551689,28.976718 61.355261,28.975473 C 61.158832,28.974228 59.338028,29.351444 57.309028,29.81373 C 53.690778,30.638105 53.615082,30.664718 53.367618,31.199348 C 53.124689,31.724234 53.211082,32.004018 55.697975,38.744685 C 58.169528,45.44381 58.3036,45.752934 58.814921,45.931182 C 59.293225,46.097905 59.697814,45.966307 62.673671,44.676107 C 64.502118,43.883371 66.138743,43.107976 66.310618,42.953005 C 66.561475,42.726807 66.623118,42.372794 66.623118,41.158051 L 66.623118,39.64486 L 67.557386,39.768794 C 68.071225,39.836964 68.511421,39.912518 68.5356,39.936696 C 68.559761,39.960876 68.357743,41.251814 68.086618,42.805448 L 67.593689,45.630241 L 66.795921,45.935307 C 66.357118,46.103098 64.256778,46.864023 62.128493,47.626251 C 58.599814,48.890016 58.240171,49.057289 58.046546,49.524732 C 57.851689,49.995171 57.993743,50.428644 59.773314,54.793785 C 61.012064,57.832369 61.841386,59.634046 62.069546,59.782303 C 62.665564,60.169605 69.613725,61.311635 70.072654,61.097737 C 70.532136,60.883584 77.333761,51.525769 77.628832,50.701791 C 77.814368,50.183709 77.753279,49.982318 76.885636,48.251973 L 75.940261,46.366641 L 76.981243,45.71593 C 78.182171,44.965241 78.01835,44.866278 79.201207,47.056948 C 79.665243,47.916323 80.098654,48.619 80.164368,48.618451 C 80.230046,48.6179 80.572993,48.537132 80.926421,48.438957 L 81.569011,48.260464 L 81.674939,40.448878 C 81.774261,33.124734 81.760886,32.609448 81.460654,32.190876 C 81.161511,31.773835 80.985921,31.731764 78.793261,31.551775 C 77.502332,31.445807 76.416564,31.325269 76.380457,31.283918 C 76.232796,31.114821 76.088779,28.798019 76.225921,28.798019 C 76.307546,28.798019 77.200904,29.076369 78.211118,29.416575 L 80.047868,30.035126 L 80.567654,29.650855 C 80.853511,29.439496 81.087957,29.181235 81.088636,29.076937 C 81.089296,28.972637 80.880243,27.01378 80.624046,24.723916 C 80.36785,22.434048 80.201779,20.516975 80.255011,20.463748 C 80.308243,20.410519 81.052082,20.323282 81.908011,20.269882 L 83.464243,20.172793 L 83.353886,20.7246 C 83.293171,21.028093 82.988743,22.714162 82.67735,24.471419 C 81.948904,28.582239 81.855171,28.38731 84.836386,28.961709 C 86.561743,29.294134 87.080225,29.335476 87.473225,29.171962 C 87.877975,29.003555 88.387868,28.122132 90.427796,24.0646 L 92.893171,19.160775 L 94.148439,19.792914 C 95.0321,20.237916 95.374332,20.501566 95.304511,20.683516 C 95.249957,20.825673 93.308975,23.635335 90.991189,26.927212 L 86.777064,32.912443 L 87.160939,33.533585 C 87.458314,34.014721 87.632136,34.133553 87.932189,34.060796 C 88.937189,33.8171 96.361832,32.413848 96.410225,32.458455 C 96.440457,32.48633 96.213493,32.918175 95.905868,33.418123 C 95.262671,34.463437 95.659636,34.316175 90.479404,35.43118 C 88.524475,35.851968 86.766779,36.324355 86.573404,36.480935 C 86.284154,36.71515 86.049654,37.740498 85.250636,42.264401 C 84.333796,47.455405 84.296386,47.781887 84.581975,48.097468 C 84.748368,48.28133 85.034868,48.479484 85.218654,48.537816 C 85.453957,48.612496 87.351118,47.524162 91.631064,44.85928 C 94.974082,42.777757 97.738136,41.10485 97.773368,41.141712 C 97.808618,41.178571 97.865564,42.003853 97.899921,42.975664 L 97.962404,44.742593 L 90.640975,47.886384 C 86.614189,49.61546 83.2191,51.095173 83.096332,51.17463 C 82.973564,51.254087 82.873118,51.574543 82.873118,51.886753 C 82.873118,52.379268 83.21635,52.798207 85.466189,55.051807 L 88.059261,57.649207 L 87.475118,58.210502 L 86.890975,58.771796 L 84.480261,56.82715 C 82.914832,55.564371 81.916082,54.880212 81.631886,54.875975 C 81.158082,54.868907 81.121921,54.903655 76.489189,59.817053 L 73.765975,62.70525 L 73.767243,64.367707 C 73.769475,67.294712 73.925386,68.305327 74.433868,68.688869 C 74.878707,69.02443 74.9116,69.017855 88.206814,65.937043 C 95.536671,64.238541 101.63249,62.760002 101.75306,62.651403 C 101.87364,62.5428 102.0174,62.213955 102.07255,61.920628 C 102.16492,61.429278 101.89926,61.085121 98.697296,57.548019 L 95.221779,53.708734 L 97.010118,53.359057 L 98.798457,53.009391 L 99.822779,54.162628 C 100.38617,54.796916 101.08705,55.587677 101.38028,55.919875 C 101.89694,56.505178 101.93299,56.516802 102.54526,56.2954 L 103.1771,56.066925 L 103.29231,53.54855 C 103.35567,52.163434 103.40781,49.07115 103.40817,46.6768 L 103.40883,42.323432 L 104.3431,42.447366 C 104.85694,42.515535 105.29065,42.586155 105.30692,42.604305 C 105.32317,42.622457 105.26796,44.405162 105.18423,46.565876 C 105.10048,48.726591 105.02839,51.469582 105.02398,52.66141 C 105.01231,55.819882 104.62337,55.704466 110.97235,54.426609 C 113.73653,53.870269 116.14487,53.373346 116.32421,53.322343 C 116.54878,53.258489 116.28444,53.776846 115.47535,54.987028 L 114.30039,56.744448 L 109.25642,58.004987 L 104.2124,59.265537 L 104.2124,60.053698 L 104.2124,60.841859 L 111.3016,63.958716 C 115.20065,65.672998 118.35624,67.131496 118.31401,67.19983 C 118.27178,67.268169 117.54817,67.620089 116.70599,67.981885 L 115.17476,68.639698 L 111.37351,66.676894 L 107.57228,64.714103 L 107.03103,65.043246 C 106.38056,65.438828 106.36648,65.530394 106.0833,71.208734 C 105.97551,73.369448 105.85273,75.309221 105.81037,75.519343 C 105.74171,75.859985 104.92667,76.268241 104.72264,76.064196 C 104.67017,76.01173 103.05169,65.406993 103.05169,65.115702 C 103.05169,65.093707 102.76835,64.982209 102.42206,64.867921 L 101.79244,64.66013 L 100.05599,66.263775 C 98.022136,68.142094 95.911457,70.305964 95.902689,70.521728 C 95.899314,70.604939 96.156386,72.940505 96.473957,75.711877 C 96.791529,78.48325 97.015279,80.783053 96.971171,80.822557 C 96.927064,80.862062 96.325689,80.948182 95.634779,81.013939 L 94.378564,81.133496 L 93.971189,76.081825 C 93.366368,68.582157 93.429136,69.015232 92.891654,68.633528 C 92.432975,68.307789 92.312654,68.320677 83.984118,69.587494 C 76.619207,70.707734 75.493261,70.919934 75.16335,71.24985 C 74.786046,71.627157 74.784957,71.661159 74.698814,85.704102 L 74.612475,99.780162 L 74.989725,100.11756 C 75.359189,100.44799 75.658814,100.44843 89.532493,100.13869 C 97.323529,99.964757 103.97448,99.855798 104.31235,99.896569 C 104.70474,99.943919 109.1686,102.41809 116.66776,106.74478 L 128.40883,113.51887 L 128.40883,120.89059 L 128.40883,128.26231 L 64.119725,128.26231 L -0.16943057,128.26231 L -0.1213645,124.31322 z M 68.930796,83.999927 L 70.434886,83.887305 L 71.219832,80.878741 C 71.651564,79.224027 71.965654,77.831035 71.917832,77.783203 C 71.813279,77.678657 58.186796,78.424819 58.070136,78.541482 C 57.988296,78.623316 58.608136,80.1083 59.880386,82.878405 L 60.565225,84.369505 L 63.995939,84.241025 C 65.882868,84.170357 68.103528,84.061861 68.930796,83.999921 L 68.930796,83.999927 z M 63.247528,75.596443 C 63.694296,75.584198 63.722028,75.518807 64.006457,73.806089 C 64.168832,72.828387 64.301689,71.904277 64.301689,71.752518 C 64.301689,71.517716 63.953243,71.476591 61.9636,71.476591 L 59.625511,71.476591 L 59.741832,73.217662 C 59.9341,76.094557 59.793314,75.881496 61.405243,75.734694 C 62.163457,75.665639 62.992493,75.603427 63.247528,75.596439 L 63.247528,75.596443 z M 70.398171,75.437468 C 70.503279,75.325694 71.087404,72.139252 71.087404,71.677685 C 71.087404,71.538828 70.36285,71.476591 68.746457,71.476591 L 66.405511,71.476591 L 66.534457,73.485519 C 66.605421,74.59043 66.7056,75.564914 66.757118,75.651041 C 66.861636,75.825796 70.218154,75.628909 70.398171,75.437468 z"
       id="path3298" />
    <path
       style="opacity:1;fill:#41ff5c;fill-opacity:1;fill-rule:nonzero;stroke:none;stroke-width:1.50000000000000000;stroke-linecap:butt;stroke-linejoin:bevel;marker:none;marker-start:none;marker-mid:none;marker-end:none;stroke-miterlimit:4;stroke-dasharray:none;stroke-dashoffset:0;stroke-opacity:1;visibility:visible;display:inline;overflow:visible;enable-background:accumulate"
       d="M 61.109028,82.879844 C 61.019475,82.648234 60.655493,81.823625 60.300189,81.047382 C 59.944868,80.271135 59.689725,79.600469 59.733171,79.557007 C 59.823939,79.46625 70.426171,78.836816 70.532511,78.915877 C 70.571082,78.944552 70.377993,79.844907 70.103457,80.916678 L 69.604279,82.865348 L 67.354761,82.97653 C 66.117546,83.037677 64.242743,83.135687 63.188546,83.194332 C 61.295457,83.299648 61.269832,83.295766 61.109028,82.879844 z"
       id="path3300" />
    <path
       style="opacity:1;fill:#41ff5c;fill-opacity:1;fill-rule:nonzero;stroke:none;stroke-width:1.50000000000000000;stroke-linecap:butt;stroke-linejoin:bevel;marker:none;marker-start:none;marker-mid:none;marker-end:none;stroke-miterlimit:4;stroke-dasharray:none;stroke-dashoffset:0;stroke-opacity:1;visibility:visible;display:inline;overflow:visible;enable-background:accumulate"
       d="M 60.8811,73.639884 L 60.819546,72.547366 L 61.952368,72.547693 L 63.085207,72.548019 L 62.958975,73.485519 C 62.889546,74.001144 62.820278,74.437869 62.805046,74.456019 C 62.789814,74.474168 62.364546,74.54378 61.860011,74.61071 L 60.942671,74.732402 L 60.8811,73.639884 z"
       id="path3302" />
    <path
       id="path2385"
       d="M 67.731197,73.639884 L 67.669643,72.547366 L 68.802465,72.547693 L 69.935304,72.548019 L 69.809072,73.485519 C 69.739643,74.001144 69.670375,74.437869 69.655143,74.456019 C 69.639911,74.474168 69.214643,74.54378 68.710108,74.61071 L 67.792768,74.732402 L 67.731197,73.639884 z"
       style="opacity:1;fill:#41ff5c;fill-opacity:1;fill-rule:nonzero;stroke:none;stroke-width:1.5;stroke-linecap:butt;stroke-linejoin:bevel;marker:none;marker-start:none;marker-mid:none;marker-end:none;stroke-miterlimit:4;stroke-dasharray:none;stroke-dashoffset:0;stroke-opacity:1;visibility:visible;display:inline;overflow:visible;enable-background:accumulate" />
  </g>
</svg>
